<?xml version="1.0" standalone="no"?><!DOCTYPE svg PUBLIC "-//W3C//DTD SVG 1.1//EN" "http://www.w3.org/Graphics/SVG/1.1/DTD/svg11.dtd"><svg t="1614517858414" class="icon" viewBox="0 0 1280 1024" version="1.1" xmlns="http://www.w3.org/2000/svg" p-id="1958" width="60" height="48" xmlns:xlink="http://www.w3.org/1999/xlink"><defs><style type="text/css"></style></defs><path d="M1253.376 808.0896H1221.12a199.2704 199.2704 0 0 1-29.696 70.1696l23.296 23.04a26.752 26.752 0 0 1 0 37.9136l-18.944 18.9696a27.0848 27.0848 0 0 1-38.144 0l-23.296-23.4752a200.0384 200.0384 0 0 1-70.144 28.9792v33.152a26.8544 26.8544 0 0 1-26.88 26.8032h-26.624a26.8544 26.8544 0 0 1-26.88-26.8032v-33.152a200.0384 200.0384 0 0 1-70.144-28.9792l-23.296 23.4752a27.0848 27.0848 0 0 1-38.144 0l-18.944-18.9696a26.752 26.752 0 0 1 0-37.9136l23.296-23.04a199.2704 199.2704 0 0 1-29.696-70.1696h-32.256a26.8544 26.8544 0 0 1-26.88-26.8032v-26.8288a26.8544 26.8544 0 0 1 26.88-26.8032h32a197.12 197.12 0 0 1 28.928-70.9632l-22.272-22.3488a26.752 26.752 0 0 1 0-37.9136l18.944-18.9696a27.0848 27.0848 0 0 1 38.144 0l22.016 22.016a199.1936 199.1936 0 0 1 71.424-29.7984v-30.8736A26.8544 26.8544 0 0 1 1010.688 512h26.624a26.8544 26.8544 0 0 1 26.88 26.8032v30.8736a199.1936 199.1936 0 0 1 71.424 29.7984l22.016-22.016a27.0848 27.0848 0 0 1 38.144 0l18.944 18.9696a26.752 26.752 0 0 1 0 37.9136l-22.272 22.3488a197.12 197.12 0 0 1 28.928 70.9632h32a26.8544 26.8544 0 0 1 26.88 26.8032v26.8288a26.8544 26.8544 0 0 1-26.88 26.8032zM1024 672.896a93.8496 93.8496 0 1 0 93.952 93.8496A93.8496 93.8496 0 0 0 1024 672.896zM665.6 819.2H51.2a51.2 51.2 0 0 1-51.2-51.2V153.6a51.2 51.2 0 0 1 51.2-51.2h256V51.2a51.2 51.2 0 0 1 51.2-51.2h358.4a51.2 51.2 0 0 1 51.2 51.2v51.2h256a51.2 51.2 0 0 1 51.2 51.2v282.88c-8.448-0.5376-16.896-1.28-25.6-1.28a384 384 0 0 0-384 384z m51.2-742.4a25.6 25.6 0 0 0-25.6-25.6H384a25.6 25.6 0 0 0-25.6 25.6v25.6h358.4V76.8z m0 358.4a51.2 51.2 0 0 0-51.2-51.2h-51.2v-51.2a51.2 51.2 0 0 0-51.2-51.2h-51.2a51.2 51.2 0 0 0-51.2 51.2v51.2h-51.2a51.2 51.2 0 0 0-51.2 51.2v51.2a51.2 51.2 0 0 0 51.2 51.2h51.2v51.2a51.2 51.2 0 0 0 51.2 51.2h51.2a51.2 51.2 0 0 0 51.2-51.2v-51.2h51.2a51.2 51.2 0 0 0 51.2-51.2v-51.2zM102.4 870.4h567.04a381.44 381.44 0 0 0 28.416 102.4H102.4a51.2 51.2 0 0 1 0-102.4z" p-id="1959" fill="#1890ff"></path></svg>